<svg width="900" height="458" viewBox="0 0 900 458" xmlns="http://www.w3.org/2000/svg">
  <defs>
    <linearGradient id="borderGrad2" x1="0%" y1="0%" x2="100%" y2="100%">
      <stop offset="0%" stop-color="#A9FEF7"/>
      <stop offset="50%" stop-color="#A78BFA"/>
      <stop offset="100%" stop-color="#F472B6"/>
    </linearGradient>
    <linearGradient id="titleGrad2" x1="0%" y1="0%" x2="100%" y2="0%">
      <stop offset="0%" stop-color="#A9FEF7"/>
      <stop offset="100%" stop-color="#A78BFA"/>
    </linearGradient>
    <pattern id="diagLinesTech" width="14" height="14" patternUnits="userSpaceOnUse" patternTransform="rotate(45)">
      <line x1="0" y1="0" x2="0" y2="14" stroke="#A9FEF7" stroke-opacity="0.035" stroke-width="1"/>
    </pattern>
    <style>
      .bg2 { fill: #0d1117; }
      .title2 { font-family: 'Segoe UI', Arial, sans-serif; font-size: 30px; font-weight: 700; fill: url(#titleGrad2); }
      .group { font-family: 'Segoe UI', Arial, sans-serif; font-size: 14px; font-weight: 700; fill: #8b949e; letter-spacing: 1px; }
      .badge { fill: #161b22; stroke: #30363d; stroke-width: 1; rx: 8; }
      .badgetext { font-family: 'Segoe UI', Arial, sans-serif; font-size: 14px; fill: #c9d1d9; }
      .dot { }
    </style>
  </defs>

  <rect class="bg2" width="900" height="458" rx="20"/>
  <rect width="900" height="458" rx="20" fill="url(#diagLinesTech)"/>
  <rect x="6" y="6" width="888" height="446" rx="16" fill="none" stroke="url(#borderGrad2)" stroke-width="1.5"/>

  <text x="40" y="50" class="title2">🛠️ Tech Stack</text>

  <!-- GRC & Frameworks -->
  <text x="44" y="85" class="group">GRC &amp; FRAMEWORKS</text>
  <g>
    <rect class="badge" x="44" y="95" width="130" height="34"/><circle cx="62" cy="112" r="5" fill="#58A6FF"/><text x="76" y="117" class="badgetext">NIST 800-37</text>
    <rect class="badge" x="182" y="95" width="130" height="34"/><circle cx="200" cy="112" r="5" fill="#58A6FF"/><text x="214" y="117" class="badgetext">NIST 800-53</text>
    <rect class="badge" x="320" y="95" width="130" height="34"/><circle cx="338" cy="112" r="5" fill="#58A6FF"/><text x="352" y="117" class="badgetext">NIST 800-61</text>
    <rect class="badge" x="458" y="95" width="110" height="34"/><circle cx="476" cy="112" r="5" fill="#58A6FF"/><text x="490" y="117" class="badgetext">ISO 27001</text>
    <rect class="badge" x="576" y="95" width="100" height="34"/><circle cx="594" cy="112" r="5" fill="#58A6FF"/><text x="608" y="117" class="badgetext">PCI DSS</text>
    <rect class="badge" x="684" y="95" width="140" height="34"/><circle cx="702" cy="112" r="5" fill="#58A6FF"/><text x="716" y="117" class="badgetext">DISA STIGs</text>
  </g>

  <!-- Security Tooling -->
  <text x="44" y="161" class="group">SECURITY TOOLING</text>
  <g>
    <rect class="badge" x="44" y="171" width="100" height="34"/><circle cx="62" cy="188" r="5" fill="#3FB950"/><text x="76" y="193" class="badgetext">Tenable</text>
    <rect class="badge" x="152" y="171" width="180" height="34"/><circle cx="170" cy="188" r="5" fill="#3FB950"/><text x="184" y="193" class="badgetext">Microsoft Sentinel</text>
    <rect class="badge" x="340" y="171" width="180" height="34"/><circle cx="358" cy="188" r="5" fill="#3FB950"/><text x="372" y="193" class="badgetext">Microsoft Defender</text>
  </g>

  <!-- Cloud & Infra -->
  <text x="44" y="237" class="group">CLOUD &amp; INFRASTRUCTURE</text>
  <g>
    <rect class="badge" x="44" y="247" width="90" height="34"/><circle cx="62" cy="264" r="5" fill="#A78BFA"/><text x="76" y="269" class="badgetext">Azure</text>
    <rect class="badge" x="142" y="247" width="160" height="34"/><circle cx="160" cy="264" r="5" fill="#A78BFA"/><text x="174" y="269" class="badgetext">Windows Server</text>
    <rect class="badge" x="310" y="247" width="160" height="34"/><circle cx="328" cy="264" r="5" fill="#A78BFA"/><text x="342" y="269" class="badgetext">Active Directory</text>
    <rect class="badge" x="478" y="247" width="110" height="34"/><circle cx="496" cy="264" r="5" fill="#A78BFA"/><text x="510" y="269" class="badgetext">Entra ID</text>
  </g>

  <!-- Scripting -->
  <text x="44" y="313" class="group">SCRIPTING &amp; QUERY</text>
  <g>
    <rect class="badge" x="44" y="323" width="130" height="34"/><circle cx="62" cy="340" r="5" fill="#F2CC60"/><text x="76" y="345" class="badgetext">PowerShell</text>
    <rect class="badge" x="182" y="323" width="100" height="34"/><circle cx="200" cy="340" r="5" fill="#F2CC60"/><text x="214" y="345" class="badgetext">Python</text>
    <rect class="badge" x="290" y="323" width="90" height="34"/><circle cx="308" cy="340" r="5" fill="#F2CC60"/><text x="322" y="345" class="badgetext">KQL</text>
  </g>

  <!-- Web/Infra -->
  <text x="44" y="389" class="group">WEB &amp; DEPLOYMENT</text>
  <g>
    <rect class="badge" x="44" y="399" width="100" height="34"/><circle cx="62" cy="416" r="5" fill="#F783AC"/><text x="76" y="421" class="badgetext">Docker</text>
    <rect class="badge" x="152" y="399" width="100" height="34"/><circle cx="170" cy="416" r="5" fill="#F783AC"/><text x="184" y="421" class="badgetext">NGINX</text>
    <rect class="badge" x="260" y="399" width="130" height="34"/><circle cx="278" cy="416" r="5" fill="#F783AC"/><text x="292" y="421" class="badgetext">WordPress</text>
  </g>
</svg>
